# xmcd CD database file
# Copyright (C) 1997 Ti Kan
#
# Track frame offsets:
#  150
#  20370
#  32390
#  50625
#  99165
#  120120
#  127410
#  140365
#  155460
#  169672
#  205542
#  218527
#  251325
#
# Disc length: 4029 seconds
#
# Revision: 1
# Processed by: cddbd v1.4b41PL1 Copyright (c) Steve Scherf et al.
# Submitted via: CDWizzard Release:4.32
#
DISCID=9e0fbb0d
DTITLE=Band of the Air Force Reserve - Votages
DYEAR=1900
DGENRE=
TTITLE0=Theme fro Silverado
TTITLE1=Raiders of the Lost Ark
TTITLE2=Can You Feel the Love Tonight
TTITLE3=Robin Hood:Prince of Theives
TTITLE4=Wind Beneath My Wings
TTITLE5=Also Sorach Zarathustera
TTITLE6=March for The Right Stuff
TTITLE7=The Snow Battle
TTITLE8=The Imperial March
TTITLE9=Star Trek II
TTITLE10=Star Trek IV
TTITLE11=Journey DOwn teh Yellow Brick Road
TTITLE12=A Disney Spectacular
EXTD=
EXTT0=
EXTT1=
EXTT2=
EXTT3=
EXTT4=
EXTT5=
EXTT6=
EXTT7=
EXTT8=
EXTT9=
EXTT10=
EXTT11=
EXTT12=
PLAYORDER=
